<?xml version="1.0" encoding="UTF-8" standalone="no"?>
<svg
   id="Layer_1"
   viewBox="0 0 250 250"
   version="1.1"
   sodipodi:docname="favicon.svg"
   inkscape:version="1.3.2 (091e20ef0f, 2023-11-25, custom)"
   xmlns:inkscape="http://www.inkscape.org/namespaces/inkscape"
   xmlns:sodipodi="http://sodipodi.sourceforge.net/DTD/sodipodi-0.dtd"
   xmlns="http://www.w3.org/2000/svg"
   xmlns:svg="http://www.w3.org/2000/svg">
  <defs
     id="defs1" />
  <sodipodi:namedview
     id="namedview1"
     pagecolor="#505050"
     bordercolor="#ffffff"
     borderopacity="1"
     inkscape:showpageshadow="0"
     inkscape:pageopacity="0"
     inkscape:pagecheckerboard="1"
     inkscape:deskcolor="#505050"
     inkscape:zoom="3.36"
     inkscape:cx="124.85119"
     inkscape:cy="125"
     inkscape:window-width="1920"
     inkscape:window-height="1044"
     inkscape:window-x="0"
     inkscape:window-y="0"
     inkscape:window-maximized="1"
     inkscape:current-layer="Layer_1" />
  <path
     d="m143,39.5c-18,0-18,18-18,18,0,0,0-18-18-18H22c-2.76,0-5,2.24-5,5v143c0,2.76,2.24,5,5,5h76c7.2,0,8.64,11.52,8.93,16.13.07,1.05.95,1.87,2,1.87h32.14c1.06,0,1.94-.82,2-1.87.29-4.61,1.73-16.13,8.93-16.13h76c2.76,0,5-2.24,5-5V44.5c0-2.76-2.24-5-5-5h-85Zm63,123.5c0,1.38-1.12,2.5-2.5,2.5h-60.5c-18,0-18,18-18,18,0,0,0-18-18-18h-60.5c-1.38,0-2.5-1.12-2.5-2.5v-94c0-1.38,1.12-2.5,2.5-2.5h51.5c7.2,0,8.64,11.52,8.93,16.13.07,1.05.95,1.87,2,1.87h32.14c1.06,0,1.94-.82,2-1.87.29-4.61,1.73-16.13,8.93-16.13h51.5c1.38,0,2.5,1.12,2.5,2.5v94Z"
     style="fill:#2bd496;fill-opacity:1"
     id="path1" />
</svg>
